REM DIRINDEX 1\2,1\4,1\5,1\6,1\7,1\3\8,1\3\9,1\3\10
REM DIRNAME cjc113,folder01,folder02,folder03,folder04,folder05,folder06,folder07,folder08,folder09
TITLE ""
FILE "DB4500_5th_4B_41.mp3" MP3
  TRACK 01 AUDIO
    TITLE "0:"
    INDEX 01 00:00:00
  TRACK 02 AUDIO
    TITLE "8:cjc113_3305"
    INDEX 01 00:00:01
  TRACK 03 AUDIO
    TITLE "0:"
    INDEX 01 00:01:17
  TRACK 04 AUDIO
    TITLE "9:cjc113_3306"
    INDEX 01 00:01:38
  TRACK 05 AUDIO
    TITLE "0:"
    INDEX 01 00:02:61
  TRACK 06 AUDIO
    TITLE "10:cjc113_3307"
    INDEX 01 00:03:08
  TRACK 07 AUDIO
    TITLE "0:"
    INDEX 01 00:06:33
  TRACK 08 AUDIO
    TITLE "8:cjc113_3308"
    INDEX 01 00:07:02
  TRACK 09 AUDIO
    TITLE "0:"
    INDEX 01 00:08:21
  TRACK 10 AUDIO
    TITLE "9:cjc113_3309"
    INDEX 01 00:08:38
  TRACK 11 AUDIO
    TITLE "0:"
    INDEX 01 00:09:71
  TRACK 12 AUDIO
    TITLE "10:cjc113_3310"
    INDEX 01 00:10:18
  TRACK 13 AUDIO
    TITLE "0:"
    INDEX 01 00:13:49
  TRACK 14 AUDIO
    TITLE "8:cjc113_3311"
    INDEX 01 00:14:15
  TRACK 15 AUDIO
    TITLE "0:"
    INDEX 01 00:15:38
  TRACK 16 AUDIO
    TITLE "9:cjc113_3312"
    INDEX 01 00:15:56
  TRACK 17 AUDIO
    TITLE "0:"
    INDEX 01 00:17:18
  TRACK 18 AUDIO
    TITLE "10:cjc113_3313"
    INDEX 01 00:17:37
  TRACK 19 AUDIO
    TITLE "0:"
    INDEX 01 00:20:53
  TRACK 20 AUDIO
    TITLE "8:cjc113_3314"
    INDEX 01 00:21:19
  TRACK 21 AUDIO
    TITLE "0:"
    INDEX 01 00:22:38
  TRACK 22 AUDIO
    TITLE "9:cjc113_3315"
    INDEX 01 00:22:58
  TRACK 23 AUDIO
    TITLE "0:"
    INDEX 01 00:24:08
  TRACK 24 AUDIO
    TITLE "10:cjc113_3316"
    INDEX 01 00:24:27
  TRACK 25 AUDIO
    TITLE "0:"
    INDEX 01 00:28:29
  TRACK 26 AUDIO
    TITLE "8:cjc113_3317"
    INDEX 01 00:28:72
  TRACK 27 AUDIO
    TITLE "0:"
    INDEX 01 00:30:30
  TRACK 28 AUDIO
    TITLE "9:cjc113_3318"
    INDEX 01 00:30:50
  TRACK 29 AUDIO
    TITLE "0:"
    INDEX 01 00:32:19
  TRACK 30 AUDIO
    TITLE "10:cjc113_3319"
    INDEX 01 00:32:37
  TRACK 31 AUDIO
    TITLE "0:"
    INDEX 01 00:36:13
  TRACK 32 AUDIO
    TITLE "8:cjc113_3320"
    INDEX 01 00:36:54
  TRACK 33 AUDIO
    TITLE "0:"
    INDEX 01 00:37:63
  TRACK 34 AUDIO
    TITLE "9:cjc113_3321"
    INDEX 01 00:38:08
  TRACK 35 AUDIO
    TITLE "0:"
    INDEX 01 00:39:37
  TRACK 36 AUDIO
    TITLE "10:cjc113_3322"
    INDEX 01 00:39:54
  TRACK 37 AUDIO
    TITLE "0:"
    INDEX 01 00:43:50
  TRACK 38 AUDIO
    TITLE "8:cjc113_3323"
    INDEX 01 00:44:20
  TRACK 39 AUDIO
    TITLE "0:"
    INDEX 01 00:45:30
  TRACK 40 AUDIO
    TITLE "9:cjc113_3324"
    INDEX 01 00:45:47
  TRACK 41 AUDIO
    TITLE "0:"
    INDEX 01 00:46:51
  TRACK 42 AUDIO
    TITLE "10:cjc113_3325"
    INDEX 01 00:46:70
  TRACK 43 AUDIO
    TITLE "0:"
    INDEX 01 00:52:10
  TRACK 44 AUDIO
    TITLE "8:cjc113_3326"
    INDEX 01 00:52:49
  TRACK 45 AUDIO
    TITLE "0:"
    INDEX 01 00:54:05
  TRACK 46 AUDIO
    TITLE "9:cjc113_3327"
    INDEX 01 00:54:25
  TRACK 47 AUDIO
    TITLE "0:"
    INDEX 01 00:56:14
  TRACK 48 AUDIO
    TITLE "10:cjc113_3328"
    INDEX 01 00:56:31
  TRACK 49 AUDIO
    TITLE "0:"
    INDEX 01 01:00:74
  TRACK 50 AUDIO
    TITLE "8:cjc113_3329"
    INDEX 01 01:01:46
  TRACK 51 AUDIO
    TITLE "0:"
    INDEX 01 01:02:67
  TRACK 52 AUDIO
    TITLE "9:cjc113_3330"
    INDEX 01 01:03:14
  TRACK 53 AUDIO
    TITLE "0:"
    INDEX 01 01:04:45
  TRACK 54 AUDIO
    TITLE "10:cjc113_3331"
    INDEX 01 01:04:66
  TRACK 55 AUDIO
    TITLE "0:"
    INDEX 01 01:09:46
  TRACK 56 AUDIO
    TITLE "8:cjc113_3332"
    INDEX 01 01:10:18
  TRACK 57 AUDIO
    TITLE "0:"
    INDEX 01 01:11:33
  TRACK 58 AUDIO
    TITLE "9:cjc113_3333"
    INDEX 01 01:11:62
  TRACK 59 AUDIO
    TITLE "0:"
    INDEX 01 01:13:32
  TRACK 60 AUDIO
    TITLE "10:cjc113_3334"
    INDEX 01 01:13:55
  TRACK 61 AUDIO
    TITLE "0:"
    INDEX 01 01:16:09
  TRACK 62 AUDIO
    TITLE "8:cjc113_3335"
    INDEX 01 01:16:60
  TRACK 63 AUDIO
    TITLE "0:"
    INDEX 01 01:17:63
  TRACK 64 AUDIO
    TITLE "9:cjc113_3336"
    INDEX 01 01:18:17
  TRACK 65 AUDIO
    TITLE "0:"
    INDEX 01 01:19:32
  TRACK 66 AUDIO
    TITLE "10:cjc113_3337"
    INDEX 01 01:19:52
  TRACK 67 AUDIO
    TITLE "0:"
    INDEX 01 01:24:04
  TRACK 68 AUDIO
    TITLE "8:cjc113_3338"
    INDEX 01 01:24:53
  TRACK 69 AUDIO
    TITLE "0:"
    INDEX 01 01:25:66
  TRACK 70 AUDIO
    TITLE "9:cjc113_3339"
    INDEX 01 01:26:11
  TRACK 71 AUDIO
    TITLE "0:"
    INDEX 01 01:27:57
  TRACK 72 AUDIO
    TITLE "10:cjc113_3340"
    INDEX 01 01:28:02
  TRACK 73 AUDIO
    TITLE "0:"
    INDEX 01 01:31:14
